<?xml version="1.0" encoding="iso-8859-1"?>
<!-- Generator: Adobe Illustrator 19.0.0, SVG Export Plug-In . SVG Version: 6.00 Build 0)  -->
<svg version="1.1" id="Layer_1" xmlns="http://www.w3.org/2000/svg" xmlns:xlink="http://www.w3.org/1999/xlink" x="0px" y="0px"
	 viewBox="0 0 478.9 478.9" style="enable-background:new 0 0 478.9 478.9;" xml:space="preserve">
<g transform="translate(0 -540.36)">
	<g>
		<g>
			<path fill="#5683ff" d="M389.1,737.26c13.3,0,24-10.8,24-24s-10.8-24-24-24s-24,10.8-24,24S375.9,737.26,389.1,737.26z M389.1,704.26
				c5,0,9,4.1,9,9c0,5-4,9-9,9s-9-4-9-9S384.1,704.26,389.1,704.26z"/>
			<circle fill="#5683ff" cx="147.5" cy="845.758" r="7.5"/>
			<path fill="#5683ff" d="M239.4,978.96c73.1,0,132.5-59.5,132.5-132.5c0-73.1-59.4-132.5-132.5-132.5s-132.5,59.4-132.5,132.5
				S166.3,978.96,239.4,978.96z M239.4,728.96c64.8,0,117.5,52.7,117.5,117.5s-52.7,117.5-117.5,117.5s-117.5-52.7-117.5-117.5
				S174.6,728.96,239.4,728.96z"/>
			<path fill="#5683ff" d="M418.1,540.36L418.1,540.36l-358.7,0c-15.4,0-27.5,12-27.5,27.4v422.9c0,16.3,11.8,28.6,27.5,28.6h358.8
				c16.1,0,28.8-12.6,28.8-28.6v-422.9C446.9,552.66,434,540.36,418.1,540.36z M431.9,990.76c0,8.5-7,13.6-13.8,13.6H59.4
				c-7.4,0-12.5-5.6-12.5-13.6v-319.7h385V990.76z M432,656.06H47v-88.3c-0.1-7.1,5.3-12.4,12.4-12.4h0h358.8
				c7.5,0,13.8,5.7,13.8,12.4V656.06z"/>
			<path fill="#5683ff" d="M384.4,581.46h-57.5c-16.7,0-28.8,12-28.8,28.6c0,15.6,12.4,27.4,28.8,27.4h57.5c16.4,0,28.7-11.8,28.8-27.4
				C413.2,593.46,401.1,581.46,384.4,581.46z M384.4,622.46h-57.5c-8.1,0-13.8-5.1-13.8-12.4c0-8.2,5.4-13.6,13.8-13.6h57.5
				c8.4,0,13.8,5.3,13.8,13.6C398.2,617.36,392.5,622.46,384.4,622.46z"/>
			<path fill="#5683ff" d="M232.5,763.06c4.1-0.3,7.3-3.9,7-8s-3.9-7.3-8-7c-41.9,2.7-77.3,31.4-88,71.5c-1.1,4,1.3,8.1,5.3,9.2
				c0.6,0.2,1.3,0.3,1.9,0.3c3.3,0,6.3-2.2,7.3-5.6C167.1,789.56,197,765.36,232.5,763.06z"/>
		</g>
	</g>
</g>
<g>
</g>
<g>
</g>
<g>
</g>
<g>
</g>
<g>
</g>
<g>
</g>
<g>
</g>
<g>
</g>
<g>
</g>
<g>
</g>
<g>
</g>
<g>
</g>
<g>
</g>
<g>
</g>
<g>
</g>
</svg>
